<?xml version="1.0" encoding="UTF-8" standalone="no"?>
<!DOCTYPE svg PUBLIC "-//W3C//DTD SVG 1.1//EN" "http://www.w3.org/Graphics/SVG/1.1/DTD/svg11.dtd">
<svg width="100%" height="100%" viewBox="0 0 256 256" version="1.1" xmlns="http://www.w3.org/2000/svg" xmlns:xlink="http://www.w3.org/1999/xlink" xml:space="preserve" xmlns:serif="http://www.serif.com/" style="fill-rule:evenodd;clip-rule:evenodd;stroke-linejoin:round;stroke-miterlimit:2;">
    <path d="M77.818,237.995C77.731,237.345 77.692,236.682 77.692,236.01L77.692,228.832L37.672,228.832C33.512,228.832 30.134,225.454 30.134,221.294L30.134,63.238C30.134,59.077 33.512,55.7 37.672,55.7L77.692,55.7L77.692,50.272L35.068,50.272C32.345,50.272 30.134,48.061 30.134,45.338L30.134,19.4C30.134,16.676 32.345,14.466 35.068,14.466L158.99,14.466C161.713,14.466 163.924,16.676 163.924,19.4L163.924,21.316L172.921,21.316C171.947,12.875 164.764,6.316 156.062,6.316L39.678,6.316C30.303,6.316 22.692,13.927 22.692,23.302L22.692,221.01C22.692,230.385 30.303,237.995 39.678,237.995L77.818,237.995Z" style="fill:rgb(168,73,149);"/>
    <path d="M172.921,21.316C173.008,21.967 173.047,22.63 173.047,23.302L173.047,29.466L213.99,29.466C216.713,29.466 218.924,31.676 218.924,34.4L218.924,60.338C218.924,63.061 216.713,65.272 213.99,65.272L173.047,65.272L173.047,70.7L213.646,70.7C217.806,70.7 221.184,74.077 221.184,78.238L221.184,236.294C221.184,240.454 217.806,243.832 213.646,243.832L92.672,243.832C89.098,243.832 86.102,241.339 85.344,237.995L77.818,237.995C78.793,246.437 85.975,252.995 94.678,252.995L211.062,252.995C220.436,252.995 228.047,245.385 228.047,236.01L228.047,38.302C228.047,28.927 220.436,21.316 211.062,21.316L172.921,21.316Z" style="fill:rgb(187,172,51);"/>
    <path d="M85.134,55.7L77.692,55.7L77.692,228.832L85.134,228.832L85.134,78.238C85.134,74.077 88.512,70.7 92.672,70.7L166.184,70.7L166.184,65.272L90.068,65.272C87.345,65.272 85.134,63.061 85.134,60.338L85.134,55.7Z" style="fill:rgb(187,172,51);"/>
    <path d="M163.924,21.316L94.678,21.316C85.303,21.316 77.692,28.927 77.692,38.302L77.692,50.272L85.134,50.272L85.134,34.4C85.134,31.676 87.345,29.466 90.068,29.466L163.924,29.466L163.924,21.316Z" style="fill:rgb(187,172,51);"/>
    <path d="M85.134,228.832L77.692,228.832L77.692,236.01C77.692,236.682 77.731,237.345 77.818,237.995L85.344,237.995C85.201,237.451 85.134,236.88 85.134,236.294L85.134,228.832Z" style="fill:rgb(187,172,51);"/>
    <rect x="166.184" y="65.272" width="6.863" height="5.427" style="fill:rgb(187,172,51);"/>
    <rect x="77.692" y="50.272" width="7.441" height="5.427" style="fill:rgb(187,172,51);"/>
    <path d="M172.921,21.316L163.924,21.316L163.924,29.466L173.047,29.466L173.047,23.302C173.047,22.63 173.008,21.967 172.921,21.316Z" style="fill:rgb(187,172,51);"/>
</svg>
