<?xml version="1.0" encoding="UTF-8" standalone="no"?>
<!DOCTYPE svg PUBLIC "-//W3C//DTD SVG 1.1//EN" "http://www.w3.org/Graphics/SVG/1.1/DTD/svg11.dtd">
<svg width="100%" height="100%" viewBox="0 0 256 256" version="1.1" xmlns="http://www.w3.org/2000/svg" xmlns:xlink="http://www.w3.org/1999/xlink" xml:space="preserve" xmlns:serif="http://www.serif.com/" style="fill-rule:evenodd;clip-rule:evenodd;stroke-linejoin:round;stroke-miterlimit:2;">
    <g id="Page" transform="matrix(1,0,0,1,-6,3)">
        <g id="Background" transform="matrix(0.891778,0,0,1.37412,-23.1699,-56.5596)">
            <path d="M213.301,58.846C213.301,52.024 204.767,46.485 194.254,46.485L63.746,46.485C53.234,46.485 44.7,52.024 44.7,58.846L44.7,202.725C44.7,209.548 53.234,215.086 63.746,215.086L194.254,215.086C204.767,215.086 213.301,209.548 213.301,202.725L213.301,58.846Z" style="fill:rgb(75,79,106);"/>
        </g>
        <g id="Notes" transform="matrix(0.784604,0,0,1.0172,-10.9379,11.0458)">
            <path d="M213.301,64.405C213.301,54.515 202.891,46.485 190.069,46.485L67.932,46.485C55.11,46.485 44.7,54.515 44.7,64.405L44.7,197.166C44.7,207.057 55.11,215.086 67.932,215.086L190.069,215.086C202.891,215.086 213.301,207.057 213.301,197.166L213.301,64.405Z" style="fill:rgb(235,235,235);"/>
        </g>
        <g id="Link" transform="matrix(0.466794,0,0,0.0408525,3.26817,33.6835)">
            <path d="M213.301,69.717C213.301,56.895 212.39,46.485 211.268,46.485L46.733,46.485C45.611,46.485 44.7,56.895 44.7,69.717L44.7,191.854C44.7,204.676 45.611,215.086 46.733,215.086L211.268,215.086C212.39,215.086 213.301,204.676 213.301,191.854L213.301,69.717Z" style="fill:rgb(235,235,235);"/>
        </g>
        <g id="Link1" serif:id="Link" transform="matrix(0.59225,0,0,0.0408525,-2.33971,43.8787)">
            <path d="M213.301,69.717C213.301,56.895 212.583,46.485 211.699,46.485L46.302,46.485C45.418,46.485 44.7,56.895 44.7,69.717L44.7,191.854C44.7,204.676 45.418,215.086 46.302,215.086L211.699,215.086C212.583,215.086 213.301,204.676 213.301,191.854L213.301,69.717Z" style="fill:rgb(235,235,235);"/>
        </g>
        <g id="Title" transform="matrix(0.459653,0,0,0.080099,3.58734,11.7422)">
            <path d="M213.301,69.717C213.301,56.895 211.487,46.485 209.253,46.485L48.748,46.485C46.514,46.485 44.7,56.895 44.7,69.717L44.7,191.854C44.7,204.676 46.514,215.086 48.748,215.086L209.253,215.086C211.487,215.086 213.301,204.676 213.301,191.854L213.301,69.717Z" style="fill:rgb(235,235,235);"/>
        </g>
    </g>
    <g id="Page1" serif:id="Page" transform="matrix(1,0,0,1,35,3)">
        <g id="Background1" serif:id="Background" transform="matrix(0.891778,0,0,1.37412,-23.1699,-56.5596)">
            <path d="M213.301,58.846C213.301,52.024 204.767,46.485 194.254,46.485L63.746,46.485C53.234,46.485 44.7,52.024 44.7,58.846L44.7,202.725C44.7,209.548 53.234,215.086 63.746,215.086L194.254,215.086C204.767,215.086 213.301,209.548 213.301,202.725L213.301,58.846Z" style="fill:rgb(106,75,75);"/>
        </g>
        <g id="Notes1" serif:id="Notes" transform="matrix(0.784604,0,0,0.899363,-10.9379,36.3911)">
            <path d="M213.301,66.753C213.301,55.567 202.891,46.485 190.069,46.485L67.932,46.485C55.11,46.485 44.7,55.567 44.7,66.753L44.7,194.818C44.7,206.005 55.11,215.086 67.932,215.086L190.069,215.086C202.891,215.086 213.301,206.005 213.301,194.818L213.301,66.753Z" style="fill:rgb(235,235,235);"/>
        </g>
        <g id="Link2" serif:id="Link" transform="matrix(0.466794,0,0,0.0408525,3.26817,33.6835)">
            <path d="M213.301,69.717C213.301,56.895 212.39,46.485 211.268,46.485L46.733,46.485C45.611,46.485 44.7,56.895 44.7,69.717L44.7,191.854C44.7,204.676 45.611,215.086 46.733,215.086L211.268,215.086C212.39,215.086 213.301,204.676 213.301,191.854L213.301,69.717Z" style="fill:rgb(235,235,235);"/>
        </g>
        <g id="Link3" serif:id="Link" transform="matrix(0.59225,0,0,0.0408525,-2.33971,43.8787)">
            <path d="M213.301,69.717C213.301,56.895 212.583,46.485 211.699,46.485L46.302,46.485C45.418,46.485 44.7,56.895 44.7,69.717L44.7,191.854C44.7,204.676 45.418,215.086 46.302,215.086L211.699,215.086C212.583,215.086 213.301,204.676 213.301,191.854L213.301,69.717Z" style="fill:rgb(235,235,235);"/>
        </g>
        <g id="Link4" serif:id="Link" transform="matrix(0.59225,0,0,0.0408525,-2.33971,54.4803)">
            <path d="M213.301,69.717C213.301,56.895 212.583,46.485 211.699,46.485L46.302,46.485C45.418,46.485 44.7,56.895 44.7,69.717L44.7,191.854C44.7,204.676 45.418,215.086 46.302,215.086L211.699,215.086C212.583,215.086 213.301,204.676 213.301,191.854L213.301,69.717Z" style="fill:rgb(235,235,235);"/>
        </g>
        <g id="Link5" serif:id="Link" transform="matrix(0.59225,0,0,0.0408525,-2.33971,65.0399)">
            <path d="M213.301,69.717C213.301,56.895 212.583,46.485 211.699,46.485L46.302,46.485C45.418,46.485 44.7,56.895 44.7,69.717L44.7,191.854C44.7,204.676 45.418,215.086 46.302,215.086L211.699,215.086C212.583,215.086 213.301,204.676 213.301,191.854L213.301,69.717Z" style="fill:rgb(235,235,235);"/>
        </g>
        <g id="Title1" serif:id="Title" transform="matrix(0.459653,0,0,0.080099,3.58734,11.7422)">
            <path d="M213.301,69.717C213.301,56.895 211.487,46.485 209.253,46.485L48.748,46.485C46.514,46.485 44.7,56.895 44.7,69.717L44.7,191.854C44.7,204.676 46.514,215.086 48.748,215.086L209.253,215.086C211.487,215.086 213.301,204.676 213.301,191.854L213.301,69.717Z" style="fill:rgb(235,235,235);"/>
        </g>
    </g>
    <g id="Page2" serif:id="Page" transform="matrix(1,0,0,1,75,3)">
        <g id="Background2" serif:id="Background" transform="matrix(0.891778,0,0,1.37412,-23.1699,-56.5596)">
            <path d="M213.301,58.846C213.301,52.024 204.767,46.485 194.254,46.485L63.746,46.485C53.234,46.485 44.7,52.024 44.7,58.846L44.7,202.725C44.7,209.548 53.234,215.086 63.746,215.086L194.254,215.086C204.767,215.086 213.301,209.548 213.301,202.725L213.301,58.846Z" style="fill:rgb(106,102,75);"/>
        </g>
        <g id="Notes2" serif:id="Notes" transform="matrix(0.784604,0,0,0.941367,-10.9379,27.3567)">
            <path d="M213.301,65.849C213.301,55.161 202.891,46.485 190.069,46.485L67.932,46.485C55.11,46.485 44.7,55.161 44.7,65.849L44.7,195.723C44.7,206.41 55.11,215.086 67.932,215.086L190.069,215.086C202.891,215.086 213.301,206.41 213.301,195.723L213.301,65.849Z" style="fill:rgb(235,235,235);"/>
        </g>
        <g id="Link6" serif:id="Link" transform="matrix(0.466794,0,0,0.0408525,3.26817,33.6835)">
            <path d="M213.301,69.717C213.301,56.895 212.39,46.485 211.268,46.485L46.733,46.485C45.611,46.485 44.7,56.895 44.7,69.717L44.7,191.854C44.7,204.676 45.611,215.086 46.733,215.086L211.268,215.086C212.39,215.086 213.301,204.676 213.301,191.854L213.301,69.717Z" style="fill:rgb(235,235,235);"/>
        </g>
        <g id="Link7" serif:id="Link" transform="matrix(0.59225,0,0,0.0408525,-2.33971,43.8787)">
            <path d="M213.301,69.717C213.301,56.895 212.583,46.485 211.699,46.485L46.302,46.485C45.418,46.485 44.7,56.895 44.7,69.717L44.7,191.854C44.7,204.676 45.418,215.086 46.302,215.086L211.699,215.086C212.583,215.086 213.301,204.676 213.301,191.854L213.301,69.717Z" style="fill:rgb(235,235,235);"/>
        </g>
        <g id="Link8" serif:id="Link" transform="matrix(0.59225,0,0,0.0408525,-2.33971,54.4803)">
            <path d="M213.301,69.717C213.301,56.895 212.583,46.485 211.699,46.485L46.302,46.485C45.418,46.485 44.7,56.895 44.7,69.717L44.7,191.854C44.7,204.676 45.418,215.086 46.302,215.086L211.699,215.086C212.583,215.086 213.301,204.676 213.301,191.854L213.301,69.717Z" style="fill:rgb(235,235,235);"/>
        </g>
        <g id="Title2" serif:id="Title" transform="matrix(0.459653,0,0,0.080099,3.58734,11.7422)">
            <path d="M213.301,69.717C213.301,56.895 211.487,46.485 209.253,46.485L48.748,46.485C46.514,46.485 44.7,56.895 44.7,69.717L44.7,191.854C44.7,204.676 46.514,215.086 48.748,215.086L209.253,215.086C211.487,215.086 213.301,204.676 213.301,191.854L213.301,69.717Z" style="fill:rgb(235,235,235);"/>
        </g>
    </g>
</svg>
