<?xml version="1.0" encoding="UTF-8" standalone="no"?>
<!DOCTYPE svg PUBLIC "-//W3C//DTD SVG 1.1//EN" "http://www.w3.org/Graphics/SVG/1.1/DTD/svg11.dtd">
<svg width="100%" height="100%" viewBox="0 0 256 256" version="1.1" xmlns="http://www.w3.org/2000/svg" xmlns:xlink="http://www.w3.org/1999/xlink" xml:space="preserve" xmlns:serif="http://www.serif.com/" style="fill-rule:evenodd;clip-rule:evenodd;stroke-linecap:round;stroke-linejoin:round;stroke-miterlimit:1.5;">
    <g id="Page" transform="matrix(1,0,0,1,24.6168,5.10863)">
        <g id="Background" transform="matrix(1.01794,0,0,1.38582,-50.0803,-59.0745)">
            <path d="M213.301,60.476C213.301,52.754 204.767,46.485 194.254,46.485L63.746,46.485C53.234,46.485 44.7,52.754 44.7,60.476L44.7,201.096C44.7,208.817 53.234,215.086 63.746,215.086L194.254,215.086C204.767,215.086 213.301,208.817 213.301,201.096L213.301,60.476Z" style="fill:rgb(108,108,108);stroke:white;stroke-width:6.85px;"/>
        </g>
        <g id="Notes" transform="matrix(0.921094,0,0,0.093335,-37.2572,92.863)">
            <path d="M213.301,130.786C213.301,84.259 209.473,46.485 204.759,46.485L53.242,46.485C48.527,46.485 44.7,84.259 44.7,130.786C44.7,177.312 48.527,215.086 53.242,215.086L204.759,215.086C209.473,215.086 213.301,177.312 213.301,130.786Z" style="fill:white;"/>
        </g>
        <g id="Notes1" serif:id="Notes" transform="matrix(0.921094,0,0,0.093335,-37.2572,121.527)">
            <path d="M213.301,130.786C213.301,84.259 209.473,46.485 204.759,46.485L53.242,46.485C48.527,46.485 44.7,84.259 44.7,130.786C44.7,177.312 48.527,215.086 53.242,215.086L204.759,215.086C209.473,215.086 213.301,177.312 213.301,130.786Z" style="fill:white;"/>
        </g>
        <g id="Notes2" serif:id="Notes" transform="matrix(0.644665,0,0,0.093335,-24.9009,152.423)">
            <path d="M213.301,130.786C213.301,84.259 207.832,46.485 201.096,46.485L56.905,46.485C50.169,46.485 44.7,84.259 44.7,130.786C44.7,177.312 50.169,215.086 56.905,215.086L201.096,215.086C207.832,215.086 213.301,177.312 213.301,130.786Z" style="fill:white;"/>
        </g>
    </g>
    <g id="Page1" serif:id="Page" transform="matrix(1,0,0,1,76,5)">
        <g transform="matrix(5.06966,0,0,2.79513,-360.083,-275.458)">
            <rect x="65.415" y="101.93" width="7.625" height="80.404" style="fill:url(#_Linear1);"/>
        </g>
        <g id="Background1" serif:id="Background" transform="matrix(1.01794,0,0,1.38582,-50.0803,-59.0745)">
            <path d="M213.301,60.476C213.301,52.754 204.767,46.485 194.254,46.485L63.746,46.485C53.234,46.485 44.7,52.754 44.7,60.476L44.7,201.096C44.7,208.817 53.234,215.086 63.746,215.086L194.254,215.086C204.767,215.086 213.301,208.817 213.301,201.096L213.301,60.476Z" style="fill:rgb(141,141,141);stroke:white;stroke-width:6.85px;"/>
        </g>
        <g id="Notes3" serif:id="Notes" transform="matrix(0.921094,0,0,0.093335,-37.2572,92.863)">
            <path d="M213.301,130.786C213.301,84.259 209.473,46.485 204.759,46.485L53.242,46.485C48.527,46.485 44.7,84.259 44.7,130.786C44.7,177.312 48.527,215.086 53.242,215.086L204.759,215.086C209.473,215.086 213.301,177.312 213.301,130.786Z" style="fill:white;"/>
        </g>
        <g id="Notes4" serif:id="Notes" transform="matrix(0.921094,0,0,0.093335,-37.2572,121.527)">
            <path d="M213.301,130.786C213.301,84.259 209.473,46.485 204.759,46.485L53.242,46.485C48.527,46.485 44.7,84.259 44.7,130.786C44.7,177.312 48.527,215.086 53.242,215.086L204.759,215.086C209.473,215.086 213.301,177.312 213.301,130.786Z" style="fill:white;"/>
        </g>
        <g id="Notes5" serif:id="Notes" transform="matrix(0.644665,0,0,0.093335,-24.9009,152.423)">
            <path d="M213.301,130.786C213.301,84.259 207.832,46.485 201.096,46.485L56.905,46.485C50.169,46.485 44.7,84.259 44.7,130.786C44.7,177.312 50.169,215.086 56.905,215.086L201.096,215.086C207.832,215.086 213.301,177.312 213.301,130.786Z" style="fill:white;"/>
        </g>
    </g>
    <defs>
        <linearGradient id="_Linear1" x1="0" y1="0" x2="1" y2="0" gradientUnits="userSpaceOnUse" gradientTransform="matrix(7.62548,0,0,80.4042,65.415,142.132)"><stop offset="0" style="stop-color:black;stop-opacity:0"/><stop offset="1" style="stop-color:black;stop-opacity:1"/></linearGradient>
    </defs>
</svg>
