<?xml version="1.0" encoding="UTF-8" standalone="no"?>
<!DOCTYPE svg PUBLIC "-//W3C//DTD SVG 1.1//EN" "http://www.w3.org/Graphics/SVG/1.1/DTD/svg11.dtd">
<svg width="100%" height="100%" viewBox="0 0 256 256" version="1.1" xmlns="http://www.w3.org/2000/svg" xmlns:xlink="http://www.w3.org/1999/xlink" xml:space="preserve" xmlns:serif="http://www.serif.com/" style="fill-rule:evenodd;clip-rule:evenodd;stroke-linecap:round;stroke-linejoin:round;stroke-miterlimit:1.5;">
    <g id="Page" transform="matrix(1,0,0,1,24.6168,5.10863)">
        <g id="Background" transform="matrix(1.01794,0,0,1.38582,-50.0803,-59.0745)">
            <path d="M213.301,60.476C213.301,52.754 204.767,46.485 194.254,46.485L63.746,46.485C53.234,46.485 44.7,52.754 44.7,60.476L44.7,201.096C44.7,208.817 53.234,215.086 63.746,215.086L194.254,215.086C204.767,215.086 213.301,208.817 213.301,201.096L213.301,60.476Z" style="fill:rgb(108,108,108);stroke:white;stroke-width:6.85px;"/>
        </g>
        <g id="Notes" transform="matrix(0.78721,0,0,0.093335,-20.3161,92.7544)">
            <path d="M213.301,130.786C213.301,84.259 208.822,46.485 203.306,46.485L54.695,46.485C49.178,46.485 44.7,84.259 44.7,130.786C44.7,177.312 49.178,215.086 54.695,215.086L203.306,215.086C208.822,215.086 213.301,177.312 213.301,130.786Z" style="fill:white;"/>
        </g>
        <g id="Notes1" serif:id="Notes" transform="matrix(0.78721,0,0,0.093335,-20.3161,122.534)">
            <path d="M213.301,130.786C213.301,84.259 208.822,46.485 203.306,46.485L54.695,46.485C49.178,46.485 44.7,84.259 44.7,130.786C44.7,177.312 49.178,215.086 54.695,215.086L203.306,215.086C208.822,215.086 213.301,177.312 213.301,130.786Z" style="fill:white;"/>
        </g>
        <g id="Notes2" serif:id="Notes" transform="matrix(0.550961,0,0,0.093335,-9.75584,152.314)">
            <path d="M213.301,130.786C213.301,84.259 206.902,46.485 199.02,46.485L58.981,46.485C51.099,46.485 44.7,84.259 44.7,130.786C44.7,177.312 51.099,215.086 58.981,215.086L199.02,215.086C206.902,215.086 213.301,177.312 213.301,130.786Z" style="fill:white;"/>
        </g>
    </g>
    <g id="Page1" serif:id="Page" transform="matrix(1,0,0,1,76,5)">
        <g transform="matrix(5.06966,0,0,2.79513,-360.083,-275.458)">
            <rect x="65.415" y="101.93" width="7.625" height="80.404" style="fill:url(#_Linear1);"/>
        </g>
        <g id="Background1" serif:id="Background" transform="matrix(1.01794,0,0,1.38582,-50.0803,-59.0745)">
            <path d="M213.301,60.476C213.301,52.754 204.767,46.485 194.254,46.485L63.746,46.485C53.234,46.485 44.7,52.754 44.7,60.476L44.7,201.096C44.7,208.817 53.234,215.086 63.746,215.086L194.254,215.086C204.767,215.086 213.301,208.817 213.301,201.096L213.301,60.476Z" style="fill:rgb(141,141,141);stroke:white;stroke-width:6.85px;"/>
        </g>
        <g id="Notes3" serif:id="Notes" transform="matrix(0.78721,0,0,0.093335,-20.3161,92.863)">
            <path d="M213.301,130.786C213.301,84.259 208.822,46.485 203.306,46.485L54.695,46.485C49.178,46.485 44.7,84.259 44.7,130.786C44.7,177.312 49.178,215.086 54.695,215.086L203.306,215.086C208.822,215.086 213.301,177.312 213.301,130.786Z" style="fill:white;"/>
        </g>
        <g id="Notes4" serif:id="Notes" transform="matrix(0.78721,0,0,0.093335,-20.3161,122.643)">
            <path d="M213.301,130.786C213.301,84.259 208.822,46.485 203.306,46.485L54.695,46.485C49.178,46.485 44.7,84.259 44.7,130.786C44.7,177.312 49.178,215.086 54.695,215.086L203.306,215.086C208.822,215.086 213.301,177.312 213.301,130.786Z" style="fill:white;"/>
        </g>
        <g id="Notes5" serif:id="Notes" transform="matrix(0.550961,0,0,0.093335,-9.75584,152.423)">
            <path d="M213.301,130.786C213.301,84.259 206.902,46.485 199.02,46.485L58.981,46.485C51.099,46.485 44.7,84.259 44.7,130.786C44.7,177.312 51.099,215.086 58.981,215.086L199.02,215.086C206.902,215.086 213.301,177.312 213.301,130.786Z" style="fill:white;"/>
        </g>
    </g>
    <defs>
        <linearGradient id="_Linear1" x1="0" y1="0" x2="1" y2="0" gradientUnits="userSpaceOnUse" gradientTransform="matrix(7.62548,0,0,80.4042,65.415,142.132)"><stop offset="0" style="stop-color:black;stop-opacity:0"/><stop offset="1" style="stop-color:black;stop-opacity:1"/></linearGradient>
    </defs>
</svg>
